<svg xmlns="http://www.w3.org/2000/svg" viewBox="0 0 1000 1000" role="img" aria-label="RALPHDEV"><path d="M700.0 153.6 A400 400 0 1 1 300.0 153.6" fill="none" stroke="#8DB4E8" stroke-width="64" stroke-linecap="round"/><path fill="#8DB4E8" d="M357.2 120.6L205.7 98.3L300.7 262.9Z"/><path fill="#EDEDEA" transform="translate(314.1 695.4)" d="M119.84000000000002 0.0H45.92V-390.88000000000005H222.32000000000002Q249.20000000000002 -390.88000000000005 270.48 -382.48Q291.76000000000005 -374.08000000000004 306.6 -358.12Q321.44000000000005 -342.16 329.56000000000006 -319.76Q337.68 -297.36 337.68 -269.92Q337.68 -229.60000000000002 319.48 -200.48000000000002Q301.28000000000003 -171.36 264.88000000000005 -159.04000000000002L344.96000000000004 0.0H262.64000000000004L189.84000000000003 -150.64000000000001H119.84000000000002ZM215.04000000000002 -212.8Q236.32000000000002 -212.8 248.64000000000004 -224.28000000000003Q260.96000000000004 -235.76000000000002 260.96000000000004 -257.04V-282.8Q260.96000000000004 -304.08000000000004 248.64000000000004 -315.28000000000003Q236.32000000000002 -326.48 215.04000000000002 -326.48H119.84000000000002V-212.8Z"/></svg>